<?xml version="1.0" encoding="utf-8"?>
<!-- Generator: Adobe Illustrator 27.8.0, SVG Export Plug-In . SVG Version: 6.00 Build 0)  -->
<svg version="1.1" id="Layer_1" xmlns="http://www.w3.org/2000/svg" xmlns:xlink="http://www.w3.org/1999/xlink" x="0px" y="0px"
	 viewBox="0 0 50 20" style="enable-background:new 0 0 50 20;" xml:space="preserve">
<style type="text/css">
	.st0{fill:none;}
	.st1{fill:#221E20;}
	.st2{fill:#FFFFFF;}
	.st3{stroke:#23305E;stroke-miterlimit:10;}
</style>
<g id="CIRCLE">
	<circle class="st0" cx="25" cy="10" r="1.1"/>
</g>
<path class="st1" d="M27.1,2.4c0.1,0,0.1,0.1,0.1,0.2C27,3.3,26.7,4,26.5,4.7c1.1,0.3,2.1,0.9,2.8,1.7C29.6,6.7,29.8,7,30,7.3
	c0.1,0.1,0,0.1,0,0.2c-0.3,0.2-0.7,0.4-1,0.5c0.2,0.5,0.4,0.9,0.5,1.5c0.1,0.9,0,1.7-0.4,2.5c-0.1,0.3-0.3,0.6-0.5,0.9c0,0,0,0,0,0
	c0.3,0.2,0.6,0.5,0.9,0.7c0.1,0.1,0.1,0.1,0,0.2c-0.9,1.1-2.1,1.8-3.5,1.9c-1.6,0.2-3.1-0.2-4.4-1.2c-0.1-0.1-0.1-0.1,0-0.2
	c0.2-0.2,0.4-0.5,0.6-0.7c0.1-0.1,0.1-0.1,0-0.2c-0.7-0.6-1.2-1.4-1.4-2.4c-0.1-0.7-0.1-1.4,0.1-2.1c-0.3-0.1-0.6-0.2-0.9-0.3
	c-0.3-0.1-0.3-0.1-0.2-0.3c0.2-0.6,0.5-1.1,0.9-1.6c0.1-0.1,0.1-0.1,0-0.2c-0.6-0.4-1.1-0.9-1.7-1.3c-0.1-0.1-0.1-0.1,0-0.2
	c1.3-1.6,2.9-2.5,4.9-2.8C24.8,2,25.9,2.1,27.1,2.4"/>
<g>
	<path class="st1" d="M37.3,10c0,0.2,0,0.4,0,0.6c0,0.9,0,1.8,0,2.7c0,0.1,0,0.2-0.2,0.2c-0.2,0-0.4,0-0.5,0c-0.1,0-0.1,0-0.1-0.1
		c0-1.6,0-3.2,0-4.7c0-0.1,0-0.1,0.1-0.1c0,0,0,0,0,0c0.6,0,0.5-0.1,0.9,0.4c0.8,1,1.5,1.9,2.3,2.9c0,0,0.1,0.1,0.1,0.1
		c0-0.2,0-0.3,0-0.4c0-0.9,0-1.9,0-2.8c0-0.1,0-0.2,0.2-0.2c0.2,0,0.4,0,0.5,0c0.1,0,0.1,0,0.1,0.1c0,1.6,0,3.2,0,4.7
		c0,0.1,0,0.1-0.1,0.1c-0.4,0-0.6-0.1-0.9-0.4c-0.7-1-1.5-1.9-2.3-2.9C37.4,10.1,37.3,10.1,37.3,10z"/>
	<path class="st1" d="M30.7,10.2c0-0.5,0-1,0-1.5c0-0.1,0-0.2,0.2-0.2c0.2,0,0.4,0,0.6,0c0.1,0,0.2,0,0.2,0.2c0,0.9,0,1.8,0,2.7
		c0,0.1,0,0.3,0,0.4c0.1,0.6,0.6,0.9,1.2,0.9c0.6,0,1-0.4,1-1c0-0.1,0-0.2,0-0.4c0-0.9,0-1.8,0-2.7c0-0.1,0-0.2,0.2-0.2
		c0.2,0,0.4,0,0.6,0c0.1,0,0.1,0,0.1,0.1c0,1,0,1.9,0,2.9c0,1.2-0.8,2-2,2c-1.1,0-1.9-0.6-2.1-1.7c0-0.1,0-0.3,0-0.4
		C30.7,11,30.7,10.6,30.7,10.2z"/>
	<path class="st1" d="M46.6,10.1c-0.3-0.9-1.2-1.6-2.2-1.6c-0.6,0-1.3,0-1.9,0c-0.1,0-0.2,0-0.2,0.2c0,0.8,0,1.6,0,2.3
		c0,0.8,0,1.6,0,2.3c0,0.1,0,0.2,0.1,0.2c0.6,0,1.3,0,1.9,0c0.6,0,1.1-0.2,1.5-0.6C46.7,12.3,47,11.1,46.6,10.1z M45.7,11.9
		c-0.2,0.6-0.7,0.8-1.3,0.9c-0.3,0-0.7,0-1,0c-0.1,0-0.1,0-0.1-0.1c0-0.5,0-1.1,0-1.6c0-0.5,0-1.1,0-1.6c0-0.1,0-0.2,0.2-0.2
		c0.3,0,0.6,0,0.9,0c0.7,0,1.2,0.4,1.4,1.1C45.9,10.8,45.9,11.4,45.7,11.9z"/>
</g>
<g>
	<path class="st1" d="M11.7,11c0-0.8,0-1.5,0-2.3c0-0.1,0-0.2,0.2-0.2c0.9,0,1.9,0,2.8,0c0.1,0,0.2,0,0.2,0.2c0,0.1,0,0.3,0,0.4
		c0,0.1,0,0.2-0.2,0.2c-0.6,0-1.3,0-1.9,0c-0.1,0-0.2,0-0.2,0.2c0,0.4,0,0.7,0,1.1c0,0.1,0,0.2,0.2,0.2c0.5,0,0.9,0,1.4,0
		c0.1,0,0.2,0,0.1,0.1c0,0.1,0,0.3,0,0.4c0,0.1,0,0.2-0.2,0.2c-0.5,0-0.9,0-1.4,0c-0.1,0-0.2,0-0.2,0.2c0,0.4,0,0.7,0,1.1
		c0,0.1,0,0.1,0.1,0.1c0.6,0,1.3,0,1.9,0c0.1,0,0.2,0,0.2,0.2c0,0.2,0,0.3,0,0.5c0,0.1,0,0.1-0.1,0.1c-1,0-1.9,0-2.9,0
		c-0.1,0-0.1-0.1-0.1-0.1C11.7,12.6,11.7,11.8,11.7,11z"/>
	<path class="st1" d="M17.6,13.5c-0.6,0-1.1-0.2-1.5-0.6c-0.1-0.1-0.1-0.1,0-0.2c0.1-0.1,0.1-0.2,0.2-0.3c0.1-0.2,0.2-0.2,0.4-0.1
		c0.2,0.1,0.3,0.2,0.5,0.3c0.3,0.1,0.6,0.1,0.8,0.1c0.3-0.1,0.5-0.3,0.5-0.6c0-0.3-0.1-0.5-0.4-0.6c-0.2-0.1-0.5-0.2-0.7-0.2
		c-0.1,0-0.3-0.1-0.4-0.1c-0.4-0.2-0.7-0.5-0.8-1c-0.1-0.6,0.1-1,0.6-1.4c0.6-0.5,1.8-0.4,2.4,0.1c0.1,0.1,0.1,0.1,0,0.2
		c-0.1,0.1-0.1,0.2-0.2,0.3c-0.1,0.2-0.2,0.2-0.4,0.1c-0.2-0.1-0.5-0.3-0.8-0.3c-0.1,0-0.3,0-0.4,0.1c-0.2,0.1-0.4,0.3-0.4,0.5
		c0,0.2,0.1,0.4,0.3,0.5c0.2,0.1,0.3,0.1,0.5,0.2c0.2,0.1,0.4,0.1,0.6,0.2c0.9,0.4,1.2,1.3,0.6,2.1C18.8,13.3,18.2,13.5,17.6,13.5z"
		/>
	<path class="st1" d="M8.9,11.4c0.2,0.1,0.3,0.2,0.3,0.4c0.4,0.6,0.8,1.2,1.2,1.8c-0.3,0-0.6,0-0.9,0c-0.1,0-0.2-0.1-0.3-0.2
		c-0.3-0.5-0.6-1-1-1.5c-0.1-0.2-0.5-0.3-0.7-0.2c-0.1,0,0,0.1,0,0.1c0,0.5,0,1.1,0,1.6c0,0.2,0,0.2-0.2,0.2c-0.2,0-0.4,0-0.6,0
		c-0.1,0-0.1,0-0.1-0.1c0-1.6,0-3.2,0-4.8c0-0.1,0-0.1,0.1-0.1c0.7,0,1.3,0,2,0c0.1,0,0.2,0,0.3,0.1c0.7,0.2,1,0.6,1.1,1.2
		c0.1,0.6-0.3,1.2-0.9,1.4C9.1,11.3,9,11.3,8.9,11.4z M7.7,9.2c-0.1,0-0.2,0-0.2,0.2c0,0.4,0,0.8,0,1.2c0,0.3,0,0.3,0.3,0.3
		c0.3,0,0.6,0,0.8-0.1c0.3-0.2,0.5-0.5,0.4-0.9c0-0.3-0.3-0.5-0.6-0.6c-0.2,0-0.4,0-0.5,0C7.8,9.2,7.7,9.2,7.7,9.2z"/>
</g>
<path class="st2" d="M28.5,12.8"/>
<circle class="st3" cx="25" cy="10" r="1.1"/>
<path class="st2" d="M25,6.6c1.9,0,3.4,1.5,3.4,3.4c0,1.9-1.5,3.4-3.4,3.4c-1.9,0-3.4-1.5-3.4-3.4C21.6,8.1,23.1,6.6,25,6.6"/>
<circle class="st1" cx="25" cy="10" r="1.1"/>
</svg>
